<svg width="52" height="52" viewBox="0 0 52 52" fill="none" xmlns="http://www.w3.org/2000/svg">
<path d="M25.133 47.6668C15.3278 47.6668 10.4252 47.6668 7.3791 44.6207C4.33301 41.5746 4.33301 36.672 4.33301 26.8667V25.1334C4.33301 15.3281 4.33301 10.4255 7.3791 7.37941C10.4252 4.3335 15.3278 4.3335 25.133 4.3335H26.8664C36.6716 4.3335 41.5742 4.3335 44.6203 7.37941C47.6663 10.4255 47.6663 15.3281 47.6663 25.1334V26.8667C47.6663 36.672 47.6663 41.5746 44.6203 44.6207C41.5742 47.6668 36.6716 47.6668 26.8663 47.6668H25.133Z" fill="#0077FF"/>
<path fill-rule="evenodd" clip-rule="evenodd" d="M34.8598 32.4049L37.7878 33.1363C39.1138 33.4675 40.3995 32.4697 40.3995 31.1092V16.9974C40.3995 15.7995 39.5808 14.7552 38.4133 14.4635L30.0155 12.3657C28.6894 12.0344 27.4038 13.0323 27.4038 14.3928V16.9367L22.1125 15.6149C20.7864 15.2837 19.5008 16.2815 19.5008 17.642V20.1859L14.2094 18.8641C12.8833 18.5328 11.5977 19.5306 11.5977 20.8912L11.5977 35.003C11.5977 36.2008 12.4163 37.2452 13.5838 37.5368L21.9816 39.6346C23.3077 39.9659 24.5933 38.9681 24.5933 37.6076V35.2613L24.5917 35.261L24.5939 23.5164C24.5939 22.3259 23.8419 21.6356 23.5687 21.4242C23.5165 21.3838 23.5021 21.3086 23.5395 21.2543C23.5763 21.2008 23.6426 21.1756 23.7047 21.1943C24.8112 21.5284 25.87 22.6628 25.9756 24.0892L26.341 34.8663C26.353 35.2204 26.582 35.5274 26.9116 35.6428L29.8848 36.3855C31.2109 36.7168 32.4965 35.719 32.4965 34.3584L32.4987 20.2686C32.4987 19.0781 31.7467 18.3879 31.4734 18.1764C31.4213 18.136 31.4069 18.0608 31.4442 18.0065C31.481 17.9531 31.5474 17.9278 31.6095 17.9466C32.7159 18.2806 33.7747 19.415 33.8804 20.8414L34.2458 31.6178C34.2583 31.9865 34.5073 32.3037 34.8598 32.4049Z" fill="white"/>
</svg>
